Coordinates
version=1
nRows=16
nColumns=42
inDegrees=yes

Units are S.I. units (second, meters, Newtons, ...)
If the header above contains a line with 'inDegrees', this indicates whether rotational values are in degrees (yes) or radians (no).

endheader
time	pelvis_tilt	pelvis_list	pelvis_rotation	pelvis_tx	pelvis_ty	pelvis_tz	hip_flexion_r	hip_adduction_r	hip_rotation_r	knee_angle_r	knee_adduction_r	knee_angle_r_beta	ankle_angle_r	subtalar_angle_r	mtp_angle_r	hip_flexion_l	hip_adduction_l	hip_rotation_l	knee_angle_l	knee_adduction_l	knee_angle_l_beta	ankle_angle_l	subtalar_angle_l	mtp_angle_l	lumbar_extension	lumbar_bending	lumbar_rotation	arm_flex_r	arm_add_r	arm_rot_r	elbow_flex_r	pro_sup_r	wrist_flex_r	wrist_dev_r	arm_flex_l	arm_add_l	arm_rot_l	elbow_flex_l	pro_sup_l	wrist_flex_l	wrist_dev_l
      0.97000000	     -6.30751860	      2.50684228	      0.88015315	     -0.67947597	      0.93161126	     -0.08705315	     -6.20824549	     -0.01744569	     -5.62838533	     35.00352060	     -3.09924810	      0.61092668	      5.71796854	     -5.34935349	     -7.62766789	     29.64106968	      6.09527569	      7.07481985	     24.46861123	     -0.58474627	      0.42705783	      4.39195626	     -7.89575162	     -7.62766789	     -6.68835328	     -9.03948340	      2.22565778	      2.48886625	     -8.19225680	     -7.68205362	     25.32649922	     90.00000001	      0.00000000	      0.00000000	     -8.87993177	    -10.47608802	    -23.26515167	     16.29753252	     90.00000001	      0.00000000	      0.00000000
      0.98000000	     -6.38296842	      2.50101925	      0.91645444	     -0.66760164	      0.93408985	     -0.08809647	     -4.25757543	     -0.37706162	     -5.81304721	     38.83590910	     -3.15377565	      0.67781448	      4.70721124	     -7.10922304	     -7.62357363	     28.63754444	      6.23180998	      6.59808017	     23.99801236	     -0.91782046	      0.41884433	      5.24412648	     -6.94521508	     -7.62357363	     -6.58921744	     -8.99812387	      2.03406565	      2.07204936	     -7.92115992	     -7.48848536	     24.48775514	     90.00000001	      0.00000000	      0.00000000	     -8.50338704	    -10.45880165	    -22.75475614	     16.85104516	     90.00000001	      0.00000000	      0.00000000
      0.99000000	     -5.87281003	      2.17203496	      1.10054081	     -0.65575273	      0.93747041	     -0.08928288	     -3.18110052	     -0.25037212	     -6.17040937	     41.87224511	     -3.38255095	      0.73080854	      4.27578305	     -7.91460685	     -7.62274642	     26.95095678	      6.07450767	      6.54398607	     23.52712263	     -1.13851188	      0.41062575	      5.90475488	     -6.53392572	     -7.62274642	     -7.22719278	     -8.52155303	      1.65425377	      1.76569803	     -7.77055999	     -7.35699554	     23.82605383	     90.00000001	      0.00000000	      0.00000000	     -7.88156536	    -10.33559492	    -22.56043747	     17.29261925	     90.00000001	      0.00000000	      0.00000000
      1.00000000	     -6.35839544	      2.41693642	      1.07758708	     -0.64407278	      0.93935173	     -0.09029507	     -0.51967616	     -1.01097134	     -6.42602798	     45.78778125	     -3.44733503	      0.79914754	      3.66108849	    -10.63528367	     -7.61878131	     26.21989630	      6.50170156	      6.25903694	     22.64694615	     -1.53155622	      0.39526378	      6.63040366	     -5.31679684	     -7.61878131	     -6.58056282	     -8.75316976	      1.44820356	      1.27284330	     -7.41426208	     -7.09514093	     22.94982112	     90.00000001	      0.00000000	      0.00000000	     -7.71543506	    -10.41474691	    -21.66046702	     18.03102034	     90.00000001	      0.00000000	      0.00000000
      1.01000000	     -5.90122702	      1.98125419	      1.30987597	     -0.63245077	      0.94264413	     -0.09148656	      0.63778538	     -0.80776867	     -6.83552551	     48.31359601	     -3.61526883	      0.84323132	      3.85054871	    -11.23435305	     -7.61732112	     24.63462629	      6.16852345	      6.13557324	     22.18989646	     -1.67105252	      0.38728675	      7.14799832	     -4.94967908	     -7.61732112	     -7.14587823	     -8.11385518	      1.01004679	      0.90195749	     -7.28562695	     -6.99303015	     22.47155561	     90.00000001	      0.00000000	      0.00000000	     -7.05737828	    -10.30958769	    -21.32761401	     18.55474338	     90.00000001	      0.00000000	      0.00000000
      1.02000000	     -6.31785825	      2.04806987	      1.40746341	     -0.62113280	      0.94472157	     -0.09229123	      3.11936736	     -1.29651950	     -6.70552039	     51.42511343	     -3.37024871	      0.89753755	      3.38172934	    -14.33173102	     -7.60959982	     23.73160969	      6.39102489	      6.54503409	     21.11971423	     -1.82210559	      0.36860855	      7.56631043	     -4.59116316	     -7.60959982	     -6.60300562	     -8.14265306	      0.74521952	      0.43706809	     -6.91375810	     -7.01766416	     21.65171060	     90.00000001	      0.00000000	      0.00000000	     -6.96708052	    -10.56425974	    -19.28877990	     19.64421814	     90.00000001	      0.00000000	      0.00000000
      1.03000000	     -6.04485388	      1.78140156	      1.70327799	     -0.60936382	      0.94769094	     -0.09344309	      4.48827158	     -1.36086419	     -7.28636955	     53.47366656	     -3.52486826	      0.93329154	      3.72883414	    -15.01144461	     -7.60739019	     22.08497547	      6.26516277	      6.83152094	     20.14906788	     -1.96990751	      0.35166758	      8.07695271	     -3.99675373	     -7.60739019	     -6.87081487	     -7.69813342	      0.21408694	      0.01059925	     -6.70251379	     -6.93605458	     21.13331339	     90.00000001	      0.00000000	      0.00000000	     -6.38573251	    -10.57491453	    -18.84926296	     20.15119132	     90.00000001	      0.00000000	      0.00000000
      1.04000000	     -5.83831763	      1.50035419	      2.03135827	     -0.59776165	      0.95054527	     -0.09460032	      5.91101287	     -1.44243672	     -7.64607642	     55.19755428	     -3.42299388	      0.96337906	      4.05999600	    -15.61775501	     -7.60515945	     20.48539315	      6.12453911	      7.20317281	     19.10893997	     -2.14731288	      0.33351392	      8.44260441	     -3.44778276	     -7.60515945	     -7.06341185	     -7.22722260	     -0.34487488	     -0.44098328	     -6.47571422	     -6.95020020	     20.70344412	     90.00000001	      0.00000000	      0.00000000	     -5.82058076	    -10.61006805	    -18.20397530	     20.72916271	     90.00000001	      0.00000000	      0.00000000
      1.05000000	     -5.61038271	      1.22722079	      2.37954754	     -0.58653436	      0.95332925	     -0.09594260	      7.29838579	     -1.56119274	     -7.76124245	     56.60237727	     -3.07792753	      0.98789785	      4.35811263	    -16.07613350	     -7.60179023	     18.83092418	      6.02688440	      7.70514757	     17.94583629	     -2.37203787	      0.31321393	      8.61627925	     -3.02339309	     -7.60179023	     -7.33297275	     -6.72163884	     -0.92470431	     -0.85840520	     -6.29409226	     -7.16409374	     20.36500340	     90.00000001	      0.00000000	      0.00000000	     -5.30651771	    -10.69954999	    -17.04985672	     21.51908084	     90.00000001	      0.00000000	      0.00000000
      1.06000000	     -5.44621492	      0.83169862	      2.71071158	     -0.57526662	      0.95586427	     -0.09703478	      8.71814042	     -1.47645522	     -7.90678672	     57.59129674	     -2.81064372	      1.00515775	      4.93016542	    -16.12455886	     -7.59935913	     17.29525072	      5.69043878	      7.98779280	     16.84310654	     -2.52702093	      0.29396767	      8.93705308	     -2.54520619	     -7.59935913	     -7.48328923	     -6.09892841	     -1.44350806	     -1.32753689	     -6.13130232	     -7.31918091	     20.11212786	     90.00000001	      0.00000000	      0.00000000	     -4.69505020	    -10.77725779	    -16.24686090	     22.13862890	     90.00000001	      0.00000000	      0.00000000
      1.07000000	     -5.31101180	      0.38211202	      3.04667351	     -0.56437002	      0.95816049	     -0.09825305	     10.18104571	     -1.32991680	     -8.01054068	     58.27147362	     -2.52132635	      1.01702907	      5.43194692	    -15.83781030	     -7.59806103	     16.01989335	      5.30372228	      7.89712930	     16.13642534	     -2.74102907	      0.28163375	      9.18250075	     -2.17132619	     -7.59806103	     -7.65447164	     -5.38315376	     -1.99731252	     -1.81208049	     -6.05247147	     -7.40826267	     20.00891110	     90.00000001	      0.00000000	      0.00000000	     -3.97515363	    -10.77555019	    -15.83203854	     22.69728721	     90.00000001	      0.00000000	      0.00000000
      1.08000000	     -5.31039628	      0.03382702	      3.32930974	     -0.55339909	      0.96013129	     -0.09908403	     11.74161207	     -1.22328480	     -7.81498569	     58.62653919	     -2.07403367	      1.02322614	      6.06193201	    -15.79926116	     -7.59618123	     14.53990304	      4.98271232	      8.36843806	     14.70826966	     -2.92328978	      0.25670773	      9.54174474	     -1.34721172	     -7.59618123	     -7.61872116	     -4.85046597	     -2.44872875	     -2.34369948	     -5.84896136	     -7.69234250	     19.91820077	     90.00000001	      0.00000000	      0.00000000	     -3.34079914	    -10.92366322	    -14.91998238	     23.37283176	     90.00000001	      0.00000000	      0.00000000
      1.09000000	     -5.28744841	     -0.35912802	      3.64759398	     -0.54271077	      0.96177242	     -0.10029829	     13.28413884	     -1.12607308	     -7.74832153	     58.72773190	     -1.66744113	      1.02499228	      6.51065275	    -15.47973337	     -7.59487701	     13.38464931	      4.67323194	      8.24886442	     13.93610212	     -3.21452032	      0.24323087	      9.75955587	     -0.92846840	     -7.59487701	     -7.66451409	     -4.20256315	     -2.96673090	     -2.85509371	     -5.79836810	     -7.89155011	     19.92499521	     90.00000001	      0.00000000	      0.00000000	     -2.65046174	    -10.96454124	    -14.36523035	     24.01728236	     90.00000001	      0.00000000	      0.00000000
      1.10000000	     -5.09306659	     -0.61674196	      3.90019628	     -0.53195418	      0.96351263	     -0.10094544	     14.49597863	     -1.04666483	     -7.30242657	     58.37345269	     -1.06980151	      1.01880895	      6.95267157	    -15.51815120	     -7.58871656	     11.67051812	      4.41122669	      8.66053355	     12.44870214	     -3.46089471	      0.21727084	      9.92794091	     -0.16256490	     -7.58871656	     -7.91449765	     -3.77754425	     -3.31820891	     -3.30767644	     -5.52546956	     -8.87693055	     19.86478012	     90.00000001	      0.00000000	      0.00000000	     -2.22386933	    -11.45237139	    -11.95464834	     25.37508738	     90.00000001	      0.00000000	      0.00000000
      1.11000000	     -5.26612389	     -0.93768887	      4.17361978	     -0.52158030	      0.96437589	     -0.10181882	     16.21525427	     -0.93891036	     -7.10240471	     57.96021222	     -0.69963748	      1.01159654	      7.45727994	    -15.38196091	     -7.58686777	     10.70121331	      4.12106818	      8.75634179	     11.54388590	     -3.67257377	      0.20147882	     10.27747957	      0.49379301	     -7.58686777	     -7.75598873	     -3.27674268	     -3.75639263	     -3.87433467	     -5.41284388	     -9.07419888	     19.98034790	     90.00000001	      0.00000000	      0.00000000	     -1.43742160	    -11.57551196	    -11.52224249	     25.99893022	     90.00000001	      0.00000000	      0.00000000
      1.12000000	     -5.45165714	     -1.19828968	      4.46659912	     -0.51103422	      0.96491238	     -0.10288607	     17.84214909	     -0.92604500	     -7.02524397	     57.23376001	     -0.42862216	      0.99891756	      7.83330885	    -15.26072714	     -7.58572799	      9.85183663	      3.96766841	      8.53695824	     10.89301561	     -4.01786434	      0.19011899	     10.58073839	      0.88793198	     -7.58572799	     -7.55196943	     -2.82327689	     -4.24158103	     -4.45431767	     -5.32222799	     -9.22717498	     20.06612351	     90.00000001	      0.00000000	      0.00000000	     -0.68208561	    -11.66348654	    -11.17618364	     26.59498921	     90.00000001	      0.00000000	      0.00000000
